<?xml version="1.0" encoding="UTF-8"?>
<svg width="40px" height="40px" viewBox="0 0 40 40" version="1.1" xmlns="http://www.w3.org/2000/svg" xmlns:xlink="http://www.w3.org/1999/xlink">
    <!-- Generator: sketchtool 52.6 (67491) - http://www.bohemiancoding.com/sketch -->
    <title>3F6383E3-C560-448F-A843-02414F1C7400</title>
    <desc>Created with sketchtool.</desc>
    <g id="Symbols" stroke="none" stroke-width="1" fill="none" fill-rule="evenodd">
        <g id="Payments---Receive-Copy" transform="translate(-311.000000, -63.000000)">
            <g id="Received---Icon" transform="translate(311.000000, 63.000000)">
                <path d="M19.9999782,-3.10862447e-14 C31.0456299,-3.10862447e-14 40,8.95441891 40,19.9998255 C40,31.0455811 31.0456299,40 19.9999782,40 C8.95432644,40 -1.11022302e-14,31.0455811 -1.11022302e-14,19.9998255 C-1.11022302e-14,8.95441891 8.95432644,-3.10862447e-14 19.9999782,-3.10862447e-14 Z" id="base" fill="#05A178" fill-rule="evenodd" opacity="0.522856213"></path>
                <path d="M20.45,22.510629 C20.458808,22.502711 20.467458,22.4945206 20.4759393,22.4860579 L24.6322046,18.3402915 C24.8081626,18.1647779 25.0930866,18.1651382 25.2686002,18.3410963 C25.4441137,18.5170543 25.4437534,18.8019783 25.2677954,18.9774919 L21.111585,23.1232035 C20.4962291,23.7372166 19.4997664,23.736576 18.8852552,23.1218271 L14.7317952,18.9681913 C14.556063,18.7924517 14.556069,18.5075274 14.7318087,18.3317952 C14.9075483,18.156063 15.1924726,18.156069 15.3682048,18.3318087 L19.5217196,22.4854993 C19.5309501,22.4947333 19.5403816,22.5036441 19.55,22.5122316 L19.55,11.45 C19.55,10.85 20.45,10.85 20.45,11.45 L20.45,22.510629 Z M28.1,21.35 C28.1,21.1014719 28.3014719,20.9 28.55,20.9 C28.7985281,20.9 29,21.1014719 29,21.35 C29,22.9347816 28.9362934,24.4472002 28.8087967,25.8872995 C28.6732335,27.4185083 27.4522662,28.6282501 25.9198708,28.7496648 C23.8139349,28.9165224 21.8504102,29 20.0291205,29 C18.2008275,29 16.218403,28.915879 14.0816421,28.7477394 C12.5484815,28.6270971 11.3265561,27.4169992 11.1910073,25.8850844 C11.0636413,24.4456494 11,22.9339692 11,21.35 C11,21.1014719 11.2014719,20.9 11.45,20.9 C11.6985281,20.9 11.9,21.1014719 11.9,21.35 C11.9,22.908075 11.9625293,24.3933426 12.0875046,25.8057594 C12.1843253,26.8999842 13.057129,27.7643398 14.1522439,27.8505129 C16.2663755,28.0168718 18.2254027,28.1 20.0291205,28.1 C21.8257381,28.1 23.7656849,28.0175248 25.8487847,27.8524766 C26.9433529,27.7657517 27.8154724,26.9016504 27.9123033,25.8079299 C28.0374066,24.3948644 28.1,22.9088732 28.1,21.35 Z" id="Download" fill="#FFFFFF" fill-rule="nonzero"></path>
            </g>
        </g>
    </g>
</svg>