<?xml version="1.0" encoding="UTF-8"?>
<svg width="40px" height="40px" viewBox="0 0 40 40" version="1.1" xmlns="http://www.w3.org/2000/svg" xmlns:xlink="http://www.w3.org/1999/xlink">
    <!-- Generator: sketchtool 52.6 (67491) - http://www.bohemiancoding.com/sketch -->
    <title>5C382C3C-4FA5-4E71-A05D-922C648EC01B</title>
    <desc>Created with sketchtool.</desc>
    <g id="Symbols" stroke="none" stroke-width="1" fill="none" fill-rule="evenodd">
        <g id="Payments---Receive-Copy" transform="translate(-181.000000, -61.000000)">
            <g id="icon_sent" transform="translate(181.000000, 61.000000)">
                <g id="Group-9">
                    <path d="M19.9999782,-3.10862447e-14 C31.0456299,-3.10862447e-14 40,8.95441891 40,19.9998255 C40,31.0455811 31.0456299,40 19.9999782,40 C8.95432644,40 -1.11022302e-14,31.0455811 -1.11022302e-14,19.9998255 C-1.11022302e-14,8.95441891 8.95432644,-3.10862447e-14 19.9999782,-3.10862447e-14 Z" id="base-copy-2" fill="#FF5F71" opacity="0.522856213"></path>
                    <path d="M17.4013751,25.2911857 L18.6430551,24.6673251 C18.8833272,24.5466046 19.1754956,24.6444679 19.2956317,24.885909 C19.4157677,25.12735 19.3183782,25.42094 19.0781061,25.5416605 L17.1324988,26.5191973 C16.8090897,26.6816886 16.4285714,26.4453712 16.4285714,26.0820296 L16.4285714,20.216809 C16.4285714,20.0271621 16.5377448,19.8546335 16.7086538,19.77419 L26.4500203,15.1891226 C26.6932885,15.0746211 26.9828686,15.1799666 27.0968157,15.4244184 C27.2107628,15.6688701 27.1059273,15.9598592 26.8626592,16.0743606 L17.4013751,20.5275988 L17.4013751,25.2911857 Z M28.419464,15.7202072 C28.5531866,15.4618909 28.6003219,15.1693058 28.5542439,14.883583 C28.4325097,14.1287272 27.7047246,13.6127877 26.9286906,13.7311998 L10.7142857,16.2052945 L16.9657011,19.2232604 C17.0232503,19.2510432 17.0743938,19.2899136 17.1160262,19.3375113 L23.4294145,26.555522 L28.419464,15.7202072 Z M16.7744186,20.3614708 L10.5334409,17.3254161 C10.0585111,17.0943765 9.86458694,16.5297074 10.1002992,16.0641925 C10.2387296,15.7908024 10.5038386,15.6002018 10.811459,15.5529029 L27.2278461,13.0287604 C28.5373479,12.8274147 29.7654329,13.7047086 29.9708507,14.9882512 C30.0486041,15.4740888 29.9690665,15.971595 29.7530684,16.3908983 L24.7050282,27.4820085 C24.4665717,27.9461787 23.8893699,28.1329879 23.415812,27.8992585 C23.2919124,27.8381065 23.1830513,27.7513855 23.0966813,27.6451118 L16.7744186,20.3614708 Z" id="Send-3" fill="#FFFFFF" fill-rule="nonzero" opacity="0.718982515"></path>
                </g>
            </g>
        </g>
    </g>
</svg>