<?xml version="1.0" encoding="UTF-8"?>
<svg width="22px" height="25px" viewBox="0 0 22 25" version="1.1" xmlns="http://www.w3.org/2000/svg" xmlns:xlink="http://www.w3.org/1999/xlink">
    <!-- Generator: sketchtool 52.6 (67491) - http://www.bohemiancoding.com/sketch -->
    <title>998C5C0A-584C-4703-BEE4-77CE812E8BD5</title>
    <desc>Created with sketchtool.</desc>
    <g id="2.0---Main-menus-and-Home" stroke="none" stroke-width="1" fill="none" fill-rule="evenodd">
        <g id="PA2.2.1---Main-Menu---With-Dashboard---Line-chart-MVP2" transform="translate(-27.000000, -127.000000)" fill="#818183" fill-rule="nonzero">
            <path d="M45.3274464,135.315732 C45.4397845,131.495255 42.4524815,128.306524 38.6551185,128.193503 C38.587335,128.191485 38.5195255,128.190476 38.4517124,128.190476 L37.4302475,128.190476 C33.662216,128.190476 30.6076229,131.263662 30.6076229,135.054629 C30.6076229,135.140139 30.6092111,135.225643 30.6123867,135.311094 L30.8472731,141.631564 C30.8867486,142.693796 30.5212099,143.731043 29.8254715,144.531012 L28.3296829,146.25089 C28.1145152,146.498293 28.1394335,146.874342 28.3853394,147.090819 C28.4931898,147.185763 28.6316269,147.238095 28.7749351,147.238095 L47.2250892,147.238095 C47.5518413,147.238095 47.8167262,146.971598 47.8167262,146.642857 C47.8167262,146.498677 47.7647105,146.359397 47.6703414,146.25089 L46.1640181,144.518899 C45.4756245,143.727375 45.1102234,142.703213 45.1411358,141.651921 L45.3274464,135.315732 Z M47.0545225,143.734965 L48.5608457,145.466956 C48.843953,145.792477 49,146.210316 49,146.642857 C49,147.62908 48.2053454,148.428571 47.2250892,148.428571 L28.7749351,148.428571 C28.3450106,148.428571 27.9296993,148.271575 27.6061482,147.986744 C26.8684302,147.337312 26.7936754,146.209164 27.4391786,145.466956 L28.9349672,143.747078 C29.4319232,143.175671 29.6930223,142.434781 29.6648255,141.676044 L29.429939,135.355573 C29.4262127,135.255302 29.424349,135.15497 29.424349,135.054629 C29.424349,130.60618 33.0087119,127 37.4302475,127 L38.4517124,127 C38.5311907,127 38.6106646,127.001182 38.6901082,127.003547 C43.1406896,127.136011 46.6418652,130.873263 46.5102028,135.350935 L46.3238922,141.687123 C46.3018119,142.438047 46.5628127,143.169591 47.0545225,143.734965 Z M34.7478896,149.862106 C34.6166314,149.561055 34.7527989,149.209952 35.0520283,149.077895 C35.3512576,148.945838 35.7002367,149.082834 35.8314949,149.383885 C36.2060581,150.242974 37.051371,150.809524 38.0000122,150.809524 C38.9458472,150.809524 39.7891169,150.246339 40.1653856,149.391063 C40.2976359,149.090452 40.6470649,148.954622 40.9458571,149.087677 C41.2446492,149.220732 41.3796581,149.572288 41.2474077,149.872899 C40.6832713,151.155206 39.4183428,152 38.0000122,152 C36.5774611,152 35.309487,151.150173 34.7478896,149.862106 Z M30.3087322,142.47619 L43.4682996,142.47619 C44.2571488,142.47619 44.2571488,143.666667 43.4682996,143.666667 L30.3087322,143.666667 C29.519883,143.666667 29.519883,142.47619 30.3087322,142.47619 Z" id="Notification"></path>
        </g>
    </g>
</svg>